<svg width="150" height="30" viewBox="0 0 150 30" fill="none" xmlns="http://www.w3.org/2000/svg">
<path d="M1.4 29C1.10667 29 0.88 28.92 0.72 28.76C0.56 28.5733 0.48 28.3467 0.48 28.08V1.96C0.48 1.66666 0.56 1.44 0.72 1.28C0.88 1.09333 1.10667 0.999998 1.4 0.999998H17.92C18.2133 0.999998 18.44 1.09333 18.6 1.28C18.76 1.44 18.84 1.66666 18.84 1.96V3.48C18.84 3.77333 18.76 4 18.6 4.16C18.44 4.32 18.2133 4.4 17.92 4.4H4.32V13.16H17.04C17.3333 13.16 17.56 13.2533 17.72 13.44C17.88 13.6 17.96 13.8267 17.96 14.12V15.6C17.96 15.8667 17.88 16.0933 17.72 16.28C17.56 16.44 17.3333 16.52 17.04 16.52H4.32V25.6H18.24C18.5333 25.6 18.76 25.68 18.92 25.84C19.08 26 19.16 26.2267 19.16 26.52V28.08C19.16 28.3467 19.08 28.5733 18.92 28.76C18.76 28.92 18.5333 29 18.24 29H1.4ZM31.9472 29C30.4539 29 29.2405 28.72 28.3072 28.16C27.3739 27.5733 26.6939 26.76 26.2672 25.72C25.8405 24.6533 25.6272 23.4 25.6272 21.96V11.4H22.5072C22.2405 11.4 22.0139 11.32 21.8272 11.16C21.6672 10.9733 21.5872 10.7467 21.5872 10.48V9.12C21.5872 8.85333 21.6672 8.64 21.8272 8.48C22.0139 8.29333 22.2405 8.2 22.5072 8.2H25.6272V1.52C25.6272 1.25333 25.7072 1.04 25.8672 0.88C26.0539 0.693332 26.2805 0.599998 26.5472 0.599998H28.4272C28.6939 0.599998 28.9072 0.693332 29.0672 0.88C29.2539 1.04 29.3472 1.25333 29.3472 1.52V8.2H34.3072C34.5739 8.2 34.7872 8.29333 34.9472 8.48C35.1339 8.64 35.2272 8.85333 35.2272 9.12V10.48C35.2272 10.7467 35.1339 10.9733 34.9472 11.16C34.7872 11.32 34.5739 11.4 34.3072 11.4H29.3472V21.68C29.3472 22.9333 29.5605 23.92 29.9872 24.64C30.4139 25.36 31.1739 25.72 32.2672 25.72H34.7072C34.9739 25.72 35.1872 25.8133 35.3472 26C35.5339 26.16 35.6272 26.3733 35.6272 26.64V28.08C35.6272 28.3467 35.5339 28.5733 35.3472 28.76C35.1872 28.92 34.9739 29 34.7072 29H31.9472ZM40.4122 29C40.1455 29 39.9189 28.92 39.7322 28.76C39.5722 28.5733 39.4922 28.3467 39.4922 28.08V1.52C39.4922 1.25333 39.5722 1.04 39.7322 0.88C39.9189 0.693332 40.1455 0.599998 40.4122 0.599998H42.4122C42.7055 0.599998 42.9322 0.693332 43.0922 0.88C43.2522 1.04 43.3322 1.25333 43.3322 1.52V10.84C44.0522 9.93333 44.9322 9.2 45.9722 8.64C47.0122 8.08 48.3322 7.8 49.9322 7.8C51.6655 7.8 53.1322 8.18667 54.3322 8.96C55.5589 9.70667 56.4789 10.76 57.0922 12.12C57.7322 13.4533 58.0522 15.0133 58.0522 16.8V28.08C58.0522 28.3467 57.9722 28.5733 57.8122 28.76C57.6522 28.92 57.4255 29 57.1322 29H55.1322C54.8655 29 54.6389 28.92 54.4522 28.76C54.2922 28.5733 54.2122 28.3467 54.2122 28.08V17C54.2122 15.1333 53.7589 13.68 52.8522 12.64C51.9455 11.5733 50.6122 11.04 48.8522 11.04C47.1989 11.04 45.8655 11.5733 44.8522 12.64C43.8389 13.68 43.3322 15.1333 43.3322 17V28.08C43.3322 28.3467 43.2522 28.5733 43.0922 28.76C42.9322 28.92 42.7055 29 42.4122 29H40.4122ZM72.1072 29.4C69.3605 29.4 67.1739 28.56 65.5472 26.88C63.9205 25.1733 63.0272 22.8533 62.8672 19.92C62.8405 19.5733 62.8272 19.1333 62.8272 18.6C62.8272 18.04 62.8405 17.5867 62.8672 17.24C62.9739 15.3467 63.4139 13.6933 64.1872 12.28C64.9605 10.84 66.0139 9.73333 67.3472 8.96C68.7072 8.18667 70.2939 7.8 72.1072 7.8C74.1339 7.8 75.8272 8.22667 77.1872 9.08C78.5739 9.93333 79.6272 11.1467 80.3472 12.72C81.0672 14.2933 81.4272 16.1333 81.4272 18.24V18.92C81.4272 19.2133 81.3339 19.44 81.1472 19.6C80.9872 19.76 80.7739 19.84 80.5072 19.84H66.6672C66.6672 19.8667 66.6672 19.92 66.6672 20C66.6672 20.08 66.6672 20.1467 66.6672 20.2C66.7205 21.2933 66.9605 22.32 67.3872 23.28C67.8139 24.2133 68.4272 24.9733 69.2272 25.56C70.0272 26.1467 70.9872 26.44 72.1072 26.44C73.0672 26.44 73.8672 26.2933 74.5072 26C75.1472 25.7067 75.6672 25.3867 76.0672 25.04C76.4672 24.6667 76.7339 24.3867 76.8672 24.2C77.1072 23.8533 77.2939 23.6533 77.4272 23.6C77.5605 23.52 77.7739 23.48 78.0672 23.48H79.9872C80.2539 23.48 80.4672 23.56 80.6272 23.72C80.8139 23.8533 80.8939 24.0533 80.8672 24.32C80.8405 24.72 80.6272 25.2133 80.2272 25.8C79.8272 26.36 79.2539 26.92 78.5072 27.48C77.7605 28.04 76.8539 28.5067 75.7872 28.88C74.7205 29.2267 73.4939 29.4 72.1072 29.4ZM66.6672 17.08H77.6272V16.96C77.6272 15.76 77.4005 14.6933 76.9472 13.76C76.5205 12.8267 75.8939 12.0933 75.0672 11.56C74.2405 11 73.2539 10.72 72.1072 10.72C70.9605 10.72 69.9739 11 69.1472 11.56C68.3472 12.0933 67.7339 12.8267 67.3072 13.76C66.8805 14.6933 66.6672 15.76 66.6672 16.96V17.08ZM87.13 29C86.8633 29 86.6367 28.92 86.45 28.76C86.29 28.5733 86.21 28.3467 86.21 28.08V9.16C86.21 8.89333 86.29 8.66667 86.45 8.48C86.6367 8.29333 86.8633 8.2 87.13 8.2H88.97C89.2367 8.2 89.4633 8.29333 89.65 8.48C89.8367 8.66667 89.93 8.89333 89.93 9.16V10.92C90.4633 10.0133 91.1967 9.33333 92.13 8.88C93.0633 8.42667 94.1833 8.2 95.49 8.2H97.09C97.3567 8.2 97.57 8.29333 97.73 8.48C97.89 8.64 97.97 8.85333 97.97 9.12V10.76C97.97 11.0267 97.89 11.24 97.73 11.4C97.57 11.56 97.3567 11.64 97.09 11.64H94.69C93.25 11.64 92.1167 12.0667 91.29 12.92C90.4633 13.7467 90.05 14.88 90.05 16.32V28.08C90.05 28.3467 89.9567 28.5733 89.77 28.76C89.5833 28.92 89.3567 29 89.09 29H87.13ZM109.295 29.4C106.548 29.4 104.361 28.56 102.735 26.88C101.108 25.1733 100.215 22.8533 100.055 19.92C100.028 19.5733 100.015 19.1333 100.015 18.6C100.015 18.04 100.028 17.5867 100.055 17.24C100.161 15.3467 100.601 13.6933 101.375 12.28C102.148 10.84 103.201 9.73333 104.535 8.96C105.895 8.18667 107.481 7.8 109.295 7.8C111.321 7.8 113.015 8.22667 114.375 9.08C115.761 9.93333 116.815 11.1467 117.535 12.72C118.255 14.2933 118.615 16.1333 118.615 18.24V18.92C118.615 19.2133 118.521 19.44 118.335 19.6C118.175 19.76 117.961 19.84 117.695 19.84H103.855C103.855 19.8667 103.855 19.92 103.855 20C103.855 20.08 103.855 20.1467 103.855 20.2C103.908 21.2933 104.148 22.32 104.575 23.28C105.001 24.2133 105.615 24.9733 106.415 25.56C107.215 26.1467 108.175 26.44 109.295 26.44C110.255 26.44 111.055 26.2933 111.695 26C112.335 25.7067 112.855 25.3867 113.255 25.04C113.655 24.6667 113.921 24.3867 114.055 24.2C114.295 23.8533 114.481 23.6533 114.615 23.6C114.748 23.52 114.961 23.48 115.255 23.48H117.175C117.441 23.48 117.655 23.56 117.815 23.72C118.001 23.8533 118.081 24.0533 118.055 24.32C118.028 24.72 117.815 25.2133 117.415 25.8C117.015 26.36 116.441 26.92 115.695 27.48C114.948 28.04 114.041 28.5067 112.975 28.88C111.908 29.2267 110.681 29.4 109.295 29.4ZM103.855 17.08H114.815V16.96C114.815 15.76 114.588 14.6933 114.135 13.76C113.708 12.8267 113.081 12.0933 112.255 11.56C111.428 11 110.441 10.72 109.295 10.72C108.148 10.72 107.161 11 106.335 11.56C105.535 12.0933 104.921 12.8267 104.495 13.76C104.068 14.6933 103.855 15.76 103.855 16.96V17.08ZM129.198 29.4C127.864 29.4 126.651 29.1333 125.558 28.6C124.464 28.0667 123.584 27.3467 122.918 26.44C122.251 25.5333 121.918 24.5067 121.918 23.36C121.918 21.52 122.664 20.0533 124.158 18.96C125.651 17.8667 127.598 17.1467 129.998 16.8L135.958 15.96V14.8C135.958 13.52 135.584 12.52 134.838 11.8C134.118 11.08 132.931 10.72 131.278 10.72C130.078 10.72 129.104 10.96 128.358 11.44C127.638 11.92 127.131 12.5333 126.838 13.28C126.678 13.68 126.398 13.88 125.998 13.88H124.198C123.904 13.88 123.678 13.8 123.518 13.64C123.384 13.4533 123.318 13.24 123.318 13C123.318 12.6 123.464 12.1067 123.758 11.52C124.078 10.9333 124.558 10.36 125.198 9.8C125.838 9.24 126.651 8.77333 127.638 8.4C128.651 8 129.878 7.8 131.318 7.8C132.918 7.8 134.264 8.01333 135.358 8.44C136.451 8.84 137.304 9.38667 137.918 10.08C138.558 10.7733 139.011 11.56 139.278 12.44C139.571 13.32 139.718 14.2133 139.718 15.12V28.08C139.718 28.3467 139.624 28.5733 139.438 28.76C139.278 28.92 139.064 29 138.798 29H136.958C136.664 29 136.438 28.92 136.278 28.76C136.118 28.5733 136.038 28.3467 136.038 28.08V26.36C135.691 26.84 135.224 27.32 134.638 27.8C134.051 28.2533 133.318 28.64 132.438 28.96C131.558 29.2533 130.478 29.4 129.198 29.4ZM130.038 26.4C131.131 26.4 132.131 26.1733 133.038 25.72C133.944 25.24 134.651 24.5067 135.158 23.52C135.691 22.5333 135.958 21.2933 135.958 19.8V18.68L131.318 19.36C129.424 19.6267 127.998 20.08 127.038 20.72C126.078 21.3333 125.598 22.12 125.598 23.08C125.598 23.8267 125.811 24.4533 126.238 24.96C126.691 25.44 127.251 25.8 127.918 26.04C128.611 26.28 129.318 26.4 130.038 26.4ZM146.428 29C146.161 29 145.934 28.92 145.748 28.76C145.588 28.5733 145.508 28.3467 145.508 28.08V1.52C145.508 1.25333 145.588 1.04 145.748 0.88C145.934 0.693332 146.161 0.599998 146.428 0.599998H148.308C148.601 0.599998 148.828 0.693332 148.988 0.88C149.148 1.04 149.228 1.25333 149.228 1.52V28.08C149.228 28.3467 149.148 28.5733 148.988 28.76C148.828 28.92 148.601 29 148.308 29H146.428Z" fill="black"/>
</svg>
