<svg width="48" height="48" viewBox="0 0 48 48" fill="none" xmlns="http://www.w3.org/2000/svg">
<rect x="0.5" y="0.5" width="47" height="47" rx="7.5" stroke="black"/>
<path d="M13.6916 32.3522C13.4783 32.3561 13.3063 32.2845 13.1756 32.1375C13.045 31.9905 12.9989 31.7993 13.0373 31.5639L17.0783 10.6878C17.1168 10.4524 17.2306 10.2583 17.4199 10.1055C17.6092 9.95278 17.8105 9.87448 18.0238 9.87064L32.5174 9.60982C32.7521 9.6056 32.9241 9.67718 33.0334 9.82457C33.1641 9.97158 33.2102 10.1628 33.1717 10.3982L32.6739 12.9675C32.6351 13.1816 32.521 13.365 32.3317 13.5178C32.1638 13.6702 31.9625 13.7485 31.7279 13.7527L21.3615 13.9392L20.3641 18.982L30.0265 18.8081C30.2612 18.8039 30.4331 18.8755 30.5425 19.0229C30.6732 19.1699 30.7193 19.3611 30.6808 19.5965L30.2115 21.9733C30.1727 22.1874 30.0586 22.3708 29.8694 22.5236C29.7014 22.6759 29.5001 22.7542 29.2655 22.7585L19.6351 22.9318L18.6085 28.1351L29.2308 27.9439C29.4654 27.9397 29.6374 28.0113 29.7467 28.1587C29.8774 28.3057 29.9235 28.4969 29.8851 28.7323L29.3866 31.2697C29.3482 31.5051 29.2344 31.6991 29.0451 31.8519C28.8771 32.0043 28.6758 32.0826 28.4412 32.0868L13.6916 32.3522Z" fill="black"/>
<path d="M30.8335 27.3034L29.0045 31.0451L28.8514 31.3584L28.5045 31.3229L24.0584 30.8687L27.3677 33.5006L27.682 33.7506L27.5056 34.1115L25.7343 37.7352L29.7014 35.7288L29.9874 35.5842L30.2383 35.7837L33.7176 38.5509L32.7157 34.6438L32.616 34.2547L32.9744 34.0734L36.7475 32.1651L32.3015 31.7109L31.9546 31.6754L31.868 31.3376L30.8335 27.3034Z" fill="white" stroke="black"/>
</svg>
