<svg width="512" height="512" viewBox="0 0 512 512" fill="none" xmlns="http://www.w3.org/2000/svg">
<path d="M67.3708 64.8865C68.7215 64.8868 70.0723 64.8866 71.4231 64.886C75.0734 64.8857 78.7237 64.8916 82.374 64.8986C86.195 64.9049 90.016 64.9054 93.837 64.9066C101.065 64.9097 108.293 64.9179 115.521 64.928C123.754 64.9392 131.986 64.9447 140.218 64.9497C157.145 64.9601 174.073 64.9784 191 65C191 75.56 191 86.12 191 97C186.83 97.0146 182.66 97.0292 178.364 97.0442C164.617 97.0944 150.871 97.1609 137.125 97.2357C128.787 97.2807 120.449 97.3201 112.111 97.3464C104.845 97.3694 97.58 97.4027 90.3146 97.4487C86.4659 97.4727 82.6173 97.4914 78.7684 97.4976C75.1486 97.5036 71.5292 97.5235 67.9095 97.5543C65.9419 97.5673 63.9741 97.5655 62.0064 97.5633C60.8425 97.5758 59.6786 97.5884 58.4794 97.6013C57.4636 97.6059 56.4478 97.6105 55.4012 97.6152C54.2126 97.8057 54.2126 97.8057 52.9999 98C50.3645 101.953 50.7112 105.352 50.7215 109.941C50.7157 110.864 50.7099 111.787 50.7039 112.738C50.6868 115.854 50.684 118.97 50.6811 122.087C50.6717 124.35 50.6614 126.613 50.6503 128.876C50.623 134.951 50.6076 141.025 50.5947 147.1C50.5808 152.795 50.5562 158.489 50.5324 164.184C50.4691 180.852 50.4231 197.52 50.3749 214.187C50.2512 251.416 50.1274 288.644 49.9999 327C185.96 327 321.92 327 462 327C461.876 289.772 461.752 252.544 461.625 214.187C461.591 202.416 461.557 190.645 461.522 178.516C461.482 168 461.482 168 461.439 157.483C461.421 152.785 461.407 148.086 461.397 143.388C461.384 137.404 461.362 131.42 461.333 125.436C461.324 123.234 461.318 121.033 461.316 118.831C461.312 115.867 461.297 112.904 461.278 109.941C461.28 109.07 461.282 108.2 461.284 107.303C461.241 102.357 461.241 102.357 459 98C454.675 97.2718 450.389 97.2152 446 97C445.67 89.74 445.34 82.48 445 75C440.115 73.1881 440.115 73.1881 435.217 71.4111C433.379 70.7031 433.379 70.7031 430 69C429.289 66.8936 429.289 66.8936 429 65C432.947 64.95 436.894 64.914 440.841 64.8901C442.831 64.8753 444.822 64.8499 446.812 64.8242C459.97 64.7578 469.604 66.6575 480.75 73.75C488.252 81.2521 493.114 90.9827 493.131 101.663C493.135 102.576 493.139 103.489 493.143 104.43C493.142 105.424 493.141 106.418 493.14 107.443C493.145 109.037 493.145 109.037 493.149 110.664C493.158 114.232 493.16 117.8 493.161 121.368C493.166 123.924 493.171 126.48 493.176 129.036C493.189 135.984 493.196 142.933 493.2 149.881C493.203 154.222 493.207 158.563 493.212 162.905C493.224 174.931 493.234 186.957 493.237 198.983C493.238 199.752 493.238 200.522 493.238 201.314C493.238 202.086 493.239 202.857 493.239 203.651C493.239 205.214 493.24 206.777 493.24 208.339C493.24 209.114 493.241 209.889 493.241 210.688C493.245 223.242 493.262 235.796 493.285 248.35C493.309 261.249 493.322 274.147 493.323 287.045C493.324 294.283 493.329 301.521 493.348 308.759C493.365 315.569 493.366 322.379 493.358 329.19C493.357 331.686 493.361 334.183 493.371 336.68C493.384 340.095 493.378 343.508 493.367 346.923C493.379 348.397 493.379 348.397 493.392 349.901C493.311 361.311 489.986 370.61 482.148 378.977C475.16 385.52 467.092 389.129 457.508 389.12C456.391 389.122 455.275 389.123 454.125 389.124C452.905 389.121 451.686 389.117 450.429 389.114C448.497 389.114 448.497 389.114 446.525 389.114C442.997 389.114 439.468 389.108 435.94 389.101C432.251 389.095 428.562 389.095 424.873 389.093C417.889 389.09 410.905 389.082 403.921 389.072C395.97 389.061 388.018 389.055 380.067 389.05C363.711 389.04 347.355 389.022 331 389C331 407.81 331 426.62 331 446C335.287 445.965 339.575 445.93 343.992 445.895C347.435 445.875 350.878 445.859 354.321 445.845C357.942 445.829 361.563 445.808 365.184 445.774C368.678 445.741 372.173 445.723 375.668 445.715C377.634 445.707 379.6 445.684 381.567 445.66C391.322 445.658 400.233 446.613 408 453C421.154 466.238 417 473.192 417 496C310.74 496 204.48 496 94.9999 496C94.9999 463.411 94.9999 463.411 100.605 455.828C106.837 449.612 114.064 446.245 122.917 445.88C124.526 445.883 124.526 445.883 126.167 445.886C127.388 445.887 128.609 445.887 129.867 445.887C131.175 445.892 132.484 445.897 133.832 445.902C135.192 445.904 136.553 445.906 137.913 445.907C141.482 445.91 145.051 445.92 148.621 445.931C152.267 445.942 155.914 445.946 159.56 445.951C166.707 445.961 173.853 445.981 181 446C181 427.19 181 408.38 181 389C166.898 389.07 166.898 389.07 152.512 389.141C146.546 389.161 140.581 389.18 134.615 389.195C125.152 389.219 115.689 389.247 106.226 389.302C99.3332 389.342 92.4404 389.367 85.5472 389.376C81.901 389.382 78.255 389.394 74.6088 389.423C70.5277 389.455 66.4471 389.456 62.3659 389.454C61.1711 389.468 59.9764 389.483 58.7454 389.498C46.5194 389.438 37.1106 385.863 28.3163 377.375C22.0861 370.663 18.8866 362.49 18.8657 353.345C18.8612 352.434 18.8568 351.523 18.8522 350.584C18.8524 349.592 18.8526 348.6 18.8528 347.578C18.8491 346.517 18.8454 345.456 18.8416 344.363C18.8306 340.802 18.8267 337.241 18.8229 333.68C18.8167 331.129 18.81 328.578 18.803 326.027C18.7838 318.367 18.7732 310.707 18.7643 303.047C18.7599 299.435 18.7545 295.824 18.7493 292.212C18.7323 280.199 18.7178 268.186 18.7105 256.172C18.7086 253.057 18.7067 249.941 18.7048 246.826C18.704 245.664 18.704 245.664 18.7033 244.479C18.695 231.946 18.6697 219.414 18.6372 206.881C18.6041 194 18.5861 181.119 18.5829 168.237C18.5807 161.011 18.5721 153.784 18.5464 146.558C18.5224 139.755 18.5189 132.953 18.5292 126.15C18.5297 123.659 18.5234 121.168 18.5096 118.677C18.3508 88.1885 18.3508 88.1885 28.0155 76.9336C39.4626 65.7795 52.1564 64.8429 67.3708 64.8865Z" fill="#FF5CAA"/>
<path d="M339 16C341.338 15.6594 341.338 15.6594 344.227 15.707C345.773 15.7215 345.773 15.7215 347.352 15.7363C348.432 15.7615 349.512 15.7866 350.625 15.8125C351.713 15.826 352.801 15.8396 353.922 15.8535C356.615 15.889 359.307 15.9384 362 16C362.187 16.7966 362.374 17.5933 362.566 18.4141C364.385 24.5471 364.385 24.5471 368.628 29.125C372.904 31.2713 377.432 32.6196 382 34C382.839 34.428 383.678 34.8559 384.543 35.2969C388.2 36.3435 390.371 35.0851 393.812 33.625C394.974 33.1429 396.135 32.6608 397.332 32.1641C398.212 31.7799 399.093 31.3958 400 31C402.549 33.346 405.059 35.7309 407.562 38.125C408.648 39.1227 408.648 39.1227 409.756 40.1406C414.984 45.1951 414.984 45.1951 415.066 49.3008C414 52 414 52 412.375 55.0625C410.73 58.5763 411.051 59.3281 412 63C412.315 64.2465 412.629 65.493 412.953 66.7773C415.308 75.2971 415.308 75.297 421.289 81.3789C425.23 83.2388 425.23 83.2388 431 85C431 92.59 431 100.18 431 108C421 112 421 112 418 112C417.83 112.701 417.66 113.402 417.484 114.125C416.289 118.803 415.115 123.083 412.75 127.312C411.307 130.027 410.998 130.923 411.062 134.125C411.943 137.104 411.943 137.104 413.625 140.062C415.272 143.581 415.281 144.383 414 148C412.145 150.508 410.019 152.676 407.812 154.875C406.965 155.784 406.965 155.784 406.1 156.711C404.466 158.358 402.962 159.762 401 161C397.112 160.981 394.988 159.994 391.438 158.375C386.839 156.536 384.582 157.377 380.062 159.156C379.052 159.6 378.041 160.043 377 160.5C373.324 162.113 369.969 163.358 366 164C365.897 164.846 365.794 165.691 365.688 166.562C365 170 365 170 362 177C354.41 177 346.82 177 339 177C338.299 174.958 337.598 172.916 336.875 170.812C334.914 166.466 333.792 164.443 329.59 162.094C326.085 160.905 322.576 159.946 319 159C318.01 158.34 317.02 157.68 316 157C312.335 157.25 309.742 158.116 306.375 159.625C302.295 161.287 302.295 161.287 299 160C297.261 158.601 297.261 158.601 295.547 156.84C294.928 156.211 294.309 155.583 293.672 154.936C292.721 153.947 292.721 153.947 291.75 152.937C291.1 152.274 290.451 151.611 289.781 150.928C288.181 149.292 286.587 147.649 285 146C285.646 144.71 285.646 144.71 286.305 143.395C289.607 136.12 289.607 136.12 289.066 128.387C287.514 125.159 285.78 122.106 284 119C283.736 117.946 283.471 116.891 283.199 115.805C282.217 112.714 282.217 112.714 278.961 111.32C277.778 110.926 276.594 110.531 275.375 110.125C272.219 109.073 272.219 109.073 269 108C269 100.41 269 92.82 269 85C280.75 80 280.75 80 283 80C283.227 78.7212 283.454 77.4425 283.688 76.125C284.507 72.2689 285.835 69.2511 287.75 65.8125C289.775 62.0678 289.775 62.0678 289.5 57.875C289.005 56.9262 288.51 55.9775 288 55C287.01 52.36 286.02 49.72 285 47C290.28 41.72 295.56 36.44 301 31C303.962 32.3672 306.924 33.7344 309.887 35.1016C313.628 36.1813 314.613 35.7644 318 34C320.206 33.1187 322.414 32.244 324.625 31.375C326.315 30.706 326.315 30.706 328.039 30.0234C331 29 331 29 334 29C334.193 28.3129 334.387 27.6259 334.586 26.918C334.846 26.0169 335.107 25.1159 335.375 24.1875C335.63 23.2942 335.885 22.4009 336.148 21.4805C337 19 337 19 339 16ZM319.938 74.25C313.637 83.1925 312.135 92.2278 313 103C315.375 113.478 321.282 121.807 330 128C339.262 133.666 348.781 135.393 359.375 132.875C368.68 130.104 376.626 125.219 382 117C387.375 106.264 389.708 96.2652 386.25 84.4336C381.688 73.5034 374.001 65.3451 363.113 60.7617C346.279 54.6938 331.339 61.8122 319.938 74.25Z" fill="#FF5CAA"/>
<path d="M240.281 24.875C244.074 27.3575 246.983 30.965 249 35C249.095 37.2551 249.122 39.5132 249.12 41.7703C249.121 42.4744 249.122 43.1785 249.123 43.9039C249.125 46.2746 249.119 48.6453 249.114 51.0161C249.113 52.711 249.113 54.4058 249.114 56.1007C249.114 60.712 249.108 65.3233 249.101 69.9346C249.095 74.7499 249.095 79.5653 249.093 84.3806C249.09 93.5037 249.082 102.627 249.072 111.75C249.061 122.134 249.055 132.519 249.05 142.903C249.04 164.269 249.022 185.634 249 207C234.81 207 220.62 207 206 207C205.91 184.825 205.836 162.651 205.793 140.476C205.772 130.18 205.744 119.883 205.698 109.587C205.658 100.613 205.633 91.638 205.624 82.6633C205.618 77.9116 205.606 73.1602 205.577 68.4086C205.55 63.9344 205.542 59.4606 205.548 54.9864C205.546 53.3461 205.539 51.7058 205.523 50.0656C205.503 47.8212 205.508 45.5781 205.519 43.3336C205.515 42.079 205.512 40.8245 205.508 39.5319C206.255 34.1718 208.464 30.496 212.375 26.6875C220.276 21.6086 231.672 21.0809 240.281 24.875Z" fill="#FF5CAA"/>
<path d="M89.8188 282.86C90.5161 282.857 91.2135 282.854 91.9319 282.851C94.2741 282.842 96.6162 282.84 98.9584 282.839C100.635 282.834 102.312 282.829 103.989 282.824C108.549 282.811 113.109 282.804 117.669 282.8C120.517 282.797 123.365 282.793 126.213 282.788C135.121 282.775 144.028 282.765 152.936 282.761C163.224 282.757 173.512 282.739 183.799 282.71C191.749 282.689 199.698 282.678 207.647 282.677C212.396 282.676 217.145 282.67 221.894 282.652C226.361 282.636 230.828 282.634 235.295 282.642C236.934 282.643 238.574 282.639 240.213 282.629C242.451 282.616 244.689 282.622 246.927 282.633C248.179 282.631 249.432 282.63 250.722 282.628C254.278 283.032 256.164 283.857 259 286C260.569 289.139 260.352 291.539 260 295C257.408 298.358 255.911 299.827 251.697 300.626C250.432 300.627 249.167 300.628 247.865 300.628C247.157 300.635 246.45 300.642 245.721 300.65C243.357 300.667 240.995 300.649 238.631 300.631C236.934 300.636 235.237 300.644 233.54 300.653C228.934 300.671 224.329 300.658 219.724 300.639C214.904 300.622 210.085 300.631 205.265 300.636C197.171 300.641 189.078 300.625 180.984 300.597C171.626 300.565 162.269 300.565 152.912 300.582C143.91 300.598 134.909 300.591 125.907 300.574C122.076 300.567 118.245 300.568 114.415 300.576C109.903 300.583 105.393 300.571 100.881 300.544C99.2258 300.537 97.5702 300.537 95.9146 300.544C93.6543 300.553 91.3954 300.537 89.1353 300.515C87.8706 300.512 86.6059 300.509 85.303 300.506C81.4205 299.911 79.7505 298.753 76.9999 296C75.9014 292.3 76.5074 288.915 78.3124 285.563C81.7126 282.414 85.4173 282.87 89.8188 282.86Z" fill="#FF5CAA"/>
<path d="M390 219C392.633 220.68 392.633 220.68 395.125 222.875C396.069 223.69 397.012 224.504 397.984 225.344C398.476 225.778 398.968 226.213 399.475 226.66C401.54 228.474 403.645 230.24 405.751 232.008C407.385 233.384 409.009 234.771 410.633 236.16C412.948 238.131 415.298 240.045 417.68 241.934C418.277 242.416 418.875 242.898 419.491 243.395C420.634 244.316 421.787 245.225 422.951 246.121C425.545 248.233 426.92 249.775 428.047 252.949C427.967 258.175 426.011 261.017 422.32 264.605C421.264 265.477 420.198 266.337 419.125 267.188C417.956 268.144 416.786 269.101 415.617 270.059C415.019 270.543 414.42 271.028 413.804 271.527C411.472 273.431 409.185 275.384 406.898 277.342C404.28 279.579 401.64 281.788 399 284C398.14 284.73 397.28 285.459 396.395 286.211C389.061 292.23 389.061 292.23 384 292C380.471 290.396 379.172 289.258 377 286C376.944 282.086 376.906 279.428 379.319 276.278C381.099 274.59 382.941 273.07 384.875 271.563C385.547 271.011 386.218 270.46 386.91 269.892C388.274 268.776 389.645 267.67 391.023 266.573C392.846 265.123 394.648 263.651 396.441 262.164C398.948 260.092 401.467 258.038 404 256C402.438 251.821 399.356 249.486 396 246.75C395.423 246.269 394.846 245.788 394.251 245.293C389.89 241.675 385.442 238.176 380.926 234.754C378.898 232.907 377.934 231.565 377 229C377.075 224.815 377.391 222.716 380.125 219.5C383.939 217.51 385.85 218.047 390 219Z" fill="#FF5CAA"/>
<path d="M329 219C331.438 220.625 331.438 220.625 333 223C333.703 227.217 333.477 229.244 331.188 232.875C326.47 237.885 320.8 241.989 315.422 246.251C313.881 247.475 312.347 248.706 310.813 249.938C309.891 250.668 308.969 251.399 308.02 252.152C307.353 252.762 306.687 253.372 306 254C306 254.66 306 255.32 306 256C307.488 257.354 309.044 258.631 310.625 259.875C315.329 263.643 319.974 267.466 324.563 271.375C325.17 271.887 325.777 272.398 326.403 272.925C332.826 278.407 332.826 278.407 333.375 283.438C333 287 333 287 331.375 289.375C328.37 291.431 326.658 292 323 292C316.94 289.505 312.643 285.079 307.895 280.648C305.148 278.136 302.335 275.773 299.438 273.438C293.774 268.866 288.151 264.151 283 259C282.292 251.92 282.292 251.92 284.875 248.563C285.907 247.696 286.95 246.844 288 246C289.544 244.586 291.086 243.169 292.625 241.75C297.945 236.99 303.451 232.488 309 228C311.93 225.585 314.859 223.169 317.785 220.75C321.823 217.56 323.976 217.874 329 219Z" fill="#FF5CAA"/>
<path d="M90.1332 250.271C91.4999 250.263 91.4999 250.263 92.8942 250.254C95.9003 250.243 98.9043 250.275 101.91 250.309C104.001 250.312 106.092 250.314 108.183 250.313C112.562 250.317 116.94 250.342 121.319 250.383C126.933 250.434 132.547 250.445 138.162 250.443C142.478 250.444 146.794 250.46 151.11 250.482C153.181 250.491 155.251 250.497 157.322 250.499C160.214 250.506 163.105 250.532 165.996 250.564C166.853 250.563 167.71 250.561 168.593 250.56C172.13 250.617 174.392 250.66 177.52 252.408C180.114 255.198 180.067 258.321 180 262C179.25 264.591 178.649 265.541 176.469 267.083C172.767 268.458 169.079 268.295 165.18 268.291C164.29 268.297 163.4 268.304 162.483 268.311C159.542 268.33 156.601 268.334 153.66 268.336C151.615 268.342 149.57 268.349 147.525 268.356C143.239 268.368 138.953 268.372 134.666 268.371C129.174 268.37 123.682 268.398 118.189 268.432C113.966 268.454 109.743 268.458 105.519 268.457C103.494 268.46 101.469 268.469 99.4445 268.484C96.6125 268.504 93.7816 268.498 90.9496 268.486C90.1136 268.497 89.2775 268.508 88.4162 268.52C84.4725 268.477 82.4542 268.276 79.0111 266.181C76.1737 263.104 75.8567 261.157 76.0001 257C79.8589 250.663 82.9795 250.13 90.1332 250.271Z" fill="#FF5CAA"/>
<path d="M90.9495 153.514C91.8411 153.51 92.7327 153.507 93.6514 153.503C96.5922 153.495 99.532 153.517 102.473 153.539C104.519 153.541 106.565 153.542 108.61 153.542C112.895 153.545 117.18 153.562 121.464 153.588C126.958 153.622 132.451 153.63 137.945 153.628C142.168 153.629 146.391 153.64 150.614 153.654C152.64 153.661 154.666 153.665 156.692 153.666C159.521 153.671 162.351 153.688 165.18 153.709C166.018 153.709 166.856 153.708 167.719 153.707C174.871 153.786 174.871 153.786 178 156C180.563 159.173 180.048 162.261 179.68 166.098C178.68 168.896 177.612 169.541 175 171C172.002 171.463 169.025 171.441 165.996 171.436C165.087 171.446 164.178 171.456 163.241 171.466C160.235 171.495 157.229 171.501 154.223 171.504C152.133 171.514 150.043 171.524 147.953 171.534C143.573 171.552 139.192 171.558 134.812 171.556C129.198 171.556 123.585 171.597 117.972 171.648C113.656 171.682 109.34 171.688 105.024 171.686C102.954 171.69 100.884 171.703 98.8148 171.726C95.9201 171.755 93.0278 171.747 90.1331 171.729C89.2783 171.746 88.4236 171.762 87.543 171.78C81.9169 171.69 81.9169 171.69 79.3306 169.743C76.7685 166.871 76.0086 165.249 75.875 161.375C78.4382 153.685 83.8363 153.419 90.9495 153.514Z" fill="#FF5CAA"/>
<path d="M91.5229 185.839C92.8283 185.831 92.8283 185.831 94.16 185.824C97.0416 185.809 99.9231 185.802 102.805 185.797C104.806 185.791 106.808 185.785 108.809 185.78C113.008 185.769 117.206 185.763 121.404 185.76C126.783 185.754 132.162 185.73 137.541 185.702C141.676 185.683 145.811 185.678 149.946 185.676C151.929 185.673 153.912 185.665 155.895 185.652C158.67 185.635 161.444 185.637 164.218 185.644C165.037 185.634 165.856 185.625 166.7 185.616C171.265 185.649 174.331 185.977 178 189C179.885 193.162 180.351 195.051 178.75 199.375C177 202 177 202 175 203C172.067 203.12 169.157 203.178 166.223 203.193C165.314 203.201 164.405 203.209 163.469 203.218C160.452 203.243 157.435 203.259 154.418 203.273C153.389 203.279 152.36 203.284 151.3 203.29C145.854 203.316 140.408 203.336 134.963 203.35C129.333 203.367 123.704 203.412 118.075 203.462C113.751 203.496 109.426 203.508 105.102 203.513C103.026 203.52 100.951 203.535 98.8759 203.559C95.9717 203.591 93.0691 203.591 90.1648 203.583C89.3069 203.6 88.4491 203.616 87.5652 203.633C83.2192 203.588 81.5129 203.397 77.9624 200.651C76 198 76 198 75.4375 195C76.1279 191.318 77.3681 189.632 80 187C83.856 185.715 87.5039 185.844 91.5229 185.839Z" fill="#FF5CAA"/>
<path d="M90.1332 218.369C91.0443 218.362 91.9554 218.355 92.8942 218.347C95.9001 218.33 98.9044 218.35 101.91 218.371C104.001 218.37 106.092 218.368 108.183 218.364C112.561 218.361 116.94 218.376 121.319 218.403C126.934 218.437 132.548 218.431 138.162 218.412C142.478 218.402 146.794 218.411 151.11 218.426C153.181 218.431 155.251 218.43 157.322 218.424C160.214 218.419 163.104 218.439 165.996 218.467C166.853 218.46 167.71 218.453 168.593 218.447C174.387 218.54 174.387 218.54 177.508 220.881C179.272 223.386 179.851 224.938 180 228C179.064 231.097 178.296 232.704 176 235C171.897 236.341 167.727 236.155 163.455 236.161C162.164 236.169 162.164 236.169 160.847 236.176C158.004 236.191 155.16 236.198 152.317 236.203C150.339 236.209 148.361 236.215 146.383 236.22C142.238 236.231 138.093 236.237 133.948 236.24C128.637 236.246 123.327 236.27 118.016 236.298C113.932 236.317 109.847 236.322 105.763 236.324C103.805 236.327 101.847 236.335 99.8889 236.348C97.1505 236.365 94.4127 236.363 91.6742 236.356C90.4623 236.37 90.4623 236.37 89.2258 236.384C84.6366 236.35 81.6218 235.895 78.0001 233C75.6546 229.482 75.4202 228.142 76.0001 224C80.1291 218.395 83.6648 218.28 90.1332 218.369Z" fill="#FF5CAA"/>
<path d="M91.0255 121.467C91.9253 121.458 92.8251 121.449 93.7521 121.44C96.7205 121.418 99.6879 121.425 102.656 121.434C104.722 121.428 106.788 121.422 108.854 121.415C113.182 121.404 117.509 121.409 121.837 121.424C127.382 121.441 132.926 121.417 138.471 121.382C142.737 121.36 147.002 121.362 151.267 121.37C153.312 121.371 155.357 121.364 157.401 121.349C160.26 121.332 163.116 121.346 165.975 121.369C167.24 121.351 167.24 121.351 168.532 121.333C172.815 121.403 174.517 121.631 178.029 124.317C180 127 180 127 180.563 130.562C179.921 134.481 179.105 135.626 176 138C172.725 139.638 169.099 139.156 165.499 139.161C164.179 139.169 164.179 139.169 162.833 139.176C159.913 139.191 156.994 139.198 154.074 139.203C152.049 139.209 150.024 139.215 147.998 139.22C143.747 139.231 139.496 139.237 135.245 139.24C129.797 139.246 124.349 139.27 118.902 139.298C114.716 139.317 110.531 139.322 106.345 139.324C104.337 139.327 102.329 139.335 100.32 139.348C97.51 139.365 94.7001 139.363 91.8895 139.356C91.0597 139.366 90.2299 139.375 89.375 139.384C84.7646 139.351 81.7465 138.992 78.0001 136C76.4331 132.866 76.1485 129.368 77.0001 126C81.3326 121.387 85.077 121.421 91.0255 121.467Z" fill="#FF5CAA"/>
<path d="M369 208C371.938 210.062 371.938 210.062 374 213C374.383 218.109 373.568 222.602 372.212 227.492C372.022 228.206 371.831 228.919 371.635 229.653C371.009 231.991 370.37 234.326 369.731 236.66C369.289 238.295 368.848 239.929 368.407 241.564C367.484 244.983 366.554 248.399 365.62 251.815C364.426 256.182 363.246 260.553 362.07 264.925C361.161 268.298 360.246 271.67 359.328 275.042C358.891 276.652 358.455 278.264 358.021 279.875C357.413 282.131 356.796 284.384 356.177 286.637C356 287.296 355.824 287.956 355.643 288.635C352.925 298.418 352.925 298.418 349.25 301.437C345.905 302.274 343.329 301.787 340 301C337.361 299.329 337.068 298.291 336.358 295.233C335.986 291.874 336.286 289.712 337.152 286.467C337.43 285.404 337.708 284.341 337.994 283.245C338.306 282.105 338.617 280.964 338.938 279.789C339.255 278.589 339.573 277.39 339.9 276.153C340.751 272.954 341.611 269.759 342.477 266.564C343.329 263.405 344.166 260.241 345.004 257.078C346.646 250.908 348.319 244.746 350.014 238.59C350.671 236.198 351.323 233.805 351.971 231.41C352.882 228.048 353.813 224.691 354.75 221.336C355.02 220.331 355.289 219.325 355.567 218.29C355.828 217.37 356.09 216.449 356.359 215.501C356.581 214.7 356.802 213.899 357.03 213.074C359.487 207.82 363.618 207.245 369 208Z" fill="#FF5CAA"/>
<path d="M206 222C220.19 222 234.38 222 249 222C247.507 226.479 246.246 229.606 243.918 233.555C243.315 234.582 242.713 235.609 242.092 236.668C241.463 237.726 240.835 238.785 240.188 239.875C239.571 240.926 238.954 241.976 238.318 243.059C234.961 248.76 231.537 254.409 228 260C225.369 257.625 223.789 255.118 222.074 252.027C221.524 251.044 220.975 250.062 220.408 249.049C219.84 248.022 219.273 246.995 218.688 245.938C217.568 243.925 216.447 241.913 215.324 239.902C214.777 238.92 214.229 237.937 213.666 236.925C211.555 233.218 209.333 229.584 207.077 225.963C206 224 206 224 206 222Z" fill="#FF5CAA"/>
</svg>
