<svg width="512" height="512" viewBox="0 0 512 512" fill="none" xmlns="http://www.w3.org/2000/svg">
<path d="M274 128C299.774 127.907 325.547 127.836 351.321 127.793C363.289 127.772 375.256 127.744 387.224 127.698C397.656 127.658 408.089 127.633 418.522 127.624C424.044 127.618 429.566 127.606 435.089 127.577C440.291 127.55 445.493 127.542 450.695 127.548C452.6 127.546 454.505 127.539 456.41 127.523C468.893 127.427 479.692 127.671 489.191 136.883C498.528 147.812 497.86 159.379 497.776 173.01C497.784 175.229 497.795 177.447 497.808 179.666C497.835 185.664 497.825 191.661 497.806 197.659C497.791 203.952 497.805 210.244 497.814 216.537C497.826 227.777 497.807 239.018 497.777 250.258C497.75 260.429 497.755 270.599 497.782 280.769C497.814 292.609 497.826 304.449 497.809 316.289C497.799 322.545 497.798 328.802 497.818 335.059C497.835 340.942 497.823 346.825 497.788 352.709C497.78 354.862 497.783 357.014 497.796 359.167C497.867 371.829 497.808 382.03 489.191 392.117C481.331 399.74 472.203 401.605 461.583 401.454C459.943 401.455 459.943 401.455 458.269 401.456C454.687 401.453 451.105 401.422 447.523 401.391C445.027 401.383 442.53 401.377 440.033 401.374C433.487 401.358 426.941 401.319 420.394 401.275C413.704 401.231 407.014 401.215 400.324 401.195C387.216 401.153 374.108 401.082 361 401C361 416.84 361 432.68 361 449C364.626 448.954 368.252 448.907 371.988 448.859C375.53 448.828 379.071 448.804 382.612 448.78C385.059 448.76 387.506 448.733 389.953 448.698C393.486 448.649 397.018 448.627 400.551 448.609C401.631 448.589 402.712 448.568 403.825 448.547C412.918 448.544 421.274 450.084 428.062 456.5C434.748 463.693 434.14 472.079 434.062 481.375C434.058 482.397 434.053 483.419 434.049 484.473C434.037 486.982 434.021 489.491 434 492C399.366 492.023 364.732 492.041 330.097 492.051C326.013 492.052 321.928 492.054 317.844 492.055C317.031 492.055 316.218 492.055 315.38 492.056C302.195 492.06 289.011 492.068 275.826 492.077C262.308 492.087 248.789 492.092 235.271 492.094C226.923 492.095 218.574 492.1 210.226 492.108C204.509 492.113 198.792 492.115 193.075 492.114C189.772 492.113 186.469 492.114 183.165 492.119C179.592 492.124 176.019 492.123 172.446 492.12C171.391 492.123 170.336 492.126 169.248 492.129C167.824 492.126 167.824 492.126 166.371 492.123C165.545 492.123 164.719 492.124 163.868 492.124C162 492 162 492 161 491C160.746 487.654 160.815 484.292 160.812 480.938C160.8 480.007 160.788 479.077 160.775 478.119C160.756 469.16 161.674 462.479 167.996 455.762C173.59 450.844 179.875 448.869 187.227 448.887C188.268 448.887 189.309 448.887 190.381 448.887C191.498 448.892 192.615 448.897 193.766 448.902C195.488 448.904 195.488 448.905 197.246 448.907C200.914 448.912 204.582 448.925 208.25 448.938C210.737 448.943 213.224 448.947 215.711 448.951C221.807 448.961 227.904 448.981 234 449C234 433.16 234 417.32 234 401C230.659 401.021 227.319 401.042 223.877 401.064C212.821 401.13 201.765 401.174 190.709 401.207C184.008 401.228 177.307 401.256 170.606 401.302C164.135 401.345 157.664 401.369 151.193 401.38C148.728 401.387 146.264 401.401 143.799 401.423C140.338 401.452 136.878 401.456 133.416 401.454C132.405 401.469 131.394 401.483 130.352 401.498C120.886 401.443 112.751 398.756 105.809 392.154C99.0396 384.093 97.1169 375.709 97.3188 365.438C97.3179 364.247 97.317 363.055 97.3161 361.827C97.3203 357.931 97.3668 354.037 97.414 350.141C97.4286 347.423 97.434 344.704 97.4397 341.986C97.4583 335.59 97.5074 329.195 97.5678 322.799C97.6352 315.51 97.668 308.221 97.698 300.932C97.7605 285.954 97.8658 270.977 97.9999 256C101.397 257.414 101.881 257.737 103.492 261.301C104.204 263.3 104.874 265.31 105.535 267.326C107.328 272.334 109.348 275.091 114 278C117.3 278.66 120.6 279.32 124 280C124 302.77 124 325.54 124 349C238.51 349 353.02 349 471 349C470.856 317.341 470.711 285.681 470.562 253.063C470.519 243.048 470.476 233.033 470.432 222.715C470.389 213.776 470.389 213.776 470.344 204.838C470.324 200.841 470.307 196.844 470.292 192.848C470.272 187.76 470.248 182.672 470.22 177.584C470.21 175.711 470.202 173.837 470.196 171.964C470.188 169.446 470.174 166.927 470.158 164.409C470.157 163.665 470.156 162.921 470.155 162.155C470.423 158.791 470.423 158.791 469 156C466.484 155.89 463.994 155.845 461.477 155.842C460.68 155.837 459.882 155.832 459.061 155.827C456.369 155.811 453.678 155.803 450.986 155.795C449.065 155.785 447.143 155.775 445.222 155.765C439.989 155.738 434.756 155.717 429.522 155.697C424.06 155.675 418.597 155.647 413.134 155.621C402.782 155.571 392.43 155.526 382.078 155.483C370.296 155.433 358.514 155.378 346.732 155.323C322.488 155.209 298.244 155.102 274 155C274 146.09 274 137.18 274 128Z" fill="#FF5CAA"/>
<path d="M120 20C131.22 20 142.44 20 154 20C155.011 23.1969 156.021 26.3937 157.062 29.6875C159.646 37.1772 159.646 37.1772 165.379 42.1953C168.582 43.1507 171.738 43.8727 175.02 44.4912C179.65 45.681 183.765 48.48 187.879 50.8398C191.861 52.3199 193.181 51.7314 197 50C198.806 49.2536 198.806 49.2536 200.648 48.4922C201.892 47.9556 203.134 47.4165 204.375 46.875C205.016 46.5979 205.656 46.3207 206.316 46.0352C207.879 45.359 209.439 44.6798 211 44C216.526 48.6438 221.818 53.4765 227 58.5C227.788 59.2335 228.575 59.967 229.387 60.7227C234.947 66.1467 234.947 66.1467 235.195 70.1211C233.382 74.4873 231.331 78.6708 229.18 82.8789C227.387 87.622 228.474 89.8177 230.488 94.3477C231.414 96.2554 232.358 98.1536 233.306 100.051C235.332 104.22 236.411 107.912 237.25 112.5C238.202 115.761 239.063 117.449 242.023 119.189C247.574 121.703 253.104 123.247 259 125C259 136.55 259 148.1 259 160C256.071 161.155 253.142 162.31 250.125 163.5C249.203 163.865 248.282 164.231 247.333 164.607C246.607 164.892 245.881 165.176 245.133 165.469C244.389 165.762 243.646 166.055 242.879 166.357C241 167 241 167 239 167C238.814 168.134 238.629 169.269 238.438 170.438C237.333 175.477 235.463 180.122 233.5 184.875C233.037 185.999 233.037 185.999 232.564 187.146C231.217 190.348 229.94 193.091 228 196C228.656 195.551 229.311 195.102 229.987 194.639C232.57 192.918 235.186 191.267 237.833 189.646C239.477 188.616 241.079 187.519 242.678 186.42C255.334 178.797 269.512 179.908 283.813 179.992C287.5 180.005 291.186 179.974 294.873 179.947C303.132 179.896 311.391 179.907 319.651 179.931C323.548 179.942 327.445 179.946 331.342 179.951C338.895 179.962 346.447 179.979 354 180C354 185.61 354 191.22 354 197C352.112 197.025 350.224 197.05 348.278 197.076C341.916 197.161 335.554 197.249 329.192 197.339C325.349 197.394 321.506 197.447 317.662 197.497C309.538 197.605 301.414 197.732 293.291 197.895C288.618 197.984 283.948 198.009 279.275 198.01C266.32 198.104 256.684 198.643 245.812 206.062C244.742 206.726 243.671 207.389 242.568 208.072C240.009 209.668 237.493 211.304 235 213C235.041 213.767 235.082 214.534 235.125 215.324C234.957 218.931 233.382 220.394 231 223C231.403 223.343 231.807 223.686 232.223 224.039C237.775 228.826 243.124 233.818 248.455 238.848C249.069 239.425 249.684 240.003 250.316 240.598C250.857 241.108 251.398 241.619 251.955 242.145C252.63 242.757 253.305 243.369 254 244C254.463 244.484 254.926 244.968 255.403 245.467C259.39 249.355 262.213 250.693 267.773 250.81C268.617 250.798 269.462 250.786 270.332 250.773C271.24 250.784 272.148 250.794 273.084 250.805C276.065 250.833 279.045 250.819 282.027 250.805C284.102 250.816 286.178 250.83 288.253 250.846C293.699 250.882 299.145 250.883 304.592 250.876C310.156 250.875 315.719 250.908 321.283 250.938C332.189 250.991 343.094 251.004 354 251C354 256.61 354 262.22 354 268C341.265 268.186 328.53 268.328 315.794 268.415C309.88 268.456 303.966 268.513 298.052 268.604C292.339 268.691 286.628 268.738 280.915 268.759C278.74 268.774 276.566 268.803 274.392 268.846C255.221 269.213 255.221 269.213 248.861 264.203C247.532 262.842 246.242 261.442 245 260C243.54 258.642 242.07 257.295 240.586 255.965C239.179 254.626 237.775 253.284 236.375 251.938C233.595 249.278 230.805 246.632 228 244C227.286 243.322 226.572 242.644 225.837 241.946C225.14 241.305 224.444 240.664 223.727 240.004C223.106 239.426 222.486 238.848 221.846 238.252C219.82 236.626 219.82 236.626 216 237C213.749 238.917 213.749 238.917 212 241C206.498 239.283 201.358 237.333 196.238 234.672C190.494 232.948 185.189 236.084 180.125 238.562C179.437 238.892 178.748 239.221 178.039 239.561C176.356 240.367 174.678 241.183 173 242C182.695 253.408 192.683 264.528 203 275.375C203.577 275.982 204.153 276.589 204.748 277.215C223.126 297.267 223.126 297.267 248.234 304.999C255.421 304.791 262.015 303.734 269 302C269 307.61 269 313.22 269 319C262.825 319.074 256.651 319.129 250.476 319.165C248.376 319.18 246.276 319.2 244.176 319.226C241.155 319.263 238.134 319.28 235.113 319.293C234.177 319.308 233.24 319.324 232.275 319.34C230.954 319.34 230.954 319.34 229.607 319.341C228.836 319.347 228.066 319.354 227.272 319.361C221.51 318.446 217.762 314.041 213.833 310.06C213.237 309.464 212.641 308.869 212.028 308.256C210.07 306.296 208.119 304.33 206.168 302.363C204.808 300.999 203.447 299.636 202.087 298.273C198.513 294.692 194.946 291.105 191.379 287.517C187.736 283.853 184.088 280.195 180.439 276.537C173.287 269.364 166.142 262.184 159 255C157.35 258.3 155.7 261.6 154 265C142.78 265 131.56 265 120 265C115 253 115 253 113.625 248.562C111.874 245.11 109.566 244.202 105.972 242.979C103.978 242.368 101.976 241.8 99.9688 241.234C95.1979 239.857 91.0584 237.534 86.7812 235.039C81.9555 233.236 78.2256 234.477 73.6133 236.445C71.4044 237.569 69.1961 238.694 66.9883 239.82C63.7237 241.109 63.1366 241.259 60 240C56.6844 237.309 53.6951 234.295 50.6711 231.282C49.1919 229.817 47.6881 228.38 46.1816 226.943C45.249 226.02 44.3164 225.096 43.3555 224.145C42.4959 223.303 41.6363 222.461 40.7507 221.593C39 219 39 219 39.1375 215.898C40.3705 211.755 42.1434 207.93 44.0039 204.035C45.6167 200.493 46.2293 198.672 45 195C44.4389 193.661 43.8443 192.336 43.2227 191.023C42.8746 190.274 42.5266 189.525 42.168 188.753C41.8032 187.969 41.4384 187.184 41.0625 186.375C38.1245 179.942 35.9119 174.067 35 167C33.35 166.67 31.7 166.34 30 166C25.05 164.02 20.1 162.04 15 160C15 148.45 15 136.9 15 125C17.9288 123.845 20.8575 122.69 23.875 121.5C24.7965 121.135 25.718 120.769 26.6675 120.393C27.3934 120.108 28.1193 119.824 28.8672 119.531C29.6108 119.238 30.3544 118.945 31.1206 118.643C33 118 33 118 35 118C35.3094 116.237 35.3094 116.237 35.625 114.438C36.638 109.854 38.201 105.598 39.9375 101.25C40.3167 100.294 40.3167 100.294 40.7036 99.3181C41.8634 96.4766 43.0527 93.9206 44.7539 91.3594C46.2091 89.0891 46.2091 89.0891 45.8828 86.5938C44.4027 82.2452 42.2534 78.2463 40.1797 74.1562C38.8492 70.5965 38.816 69.5414 40 66C42.1331 63.4128 42.1331 63.4128 44.9102 60.6992C45.3971 60.218 45.884 59.7367 46.3856 59.2409C47.9354 57.7134 49.4985 56.2005 51.0625 54.6875C52.1188 53.6513 53.1741 52.6142 54.2285 51.5762C56.8086 49.04 59.4009 46.5167 62 44C63.1808 44.4937 64.3616 44.9874 65.5781 45.4961C67.1354 46.1434 68.6927 46.7905 70.25 47.4375C71.0273 47.763 71.8046 48.0885 72.6055 48.4238C73.3596 48.7364 74.1137 49.049 74.8906 49.3711C75.9275 49.8031 75.9275 49.8031 76.9854 50.2439C81.6535 52.048 81.6535 52.048 86.4336 50.4883C87.774 49.7737 89.1083 49.0478 90.4375 48.3125C95.6998 45.4459 100.017 43.6946 106 42.75C109.517 41.8389 111.374 40.9961 113.331 37.8828C116.168 32.0548 117.967 26.2201 120 20ZM92 107C82.1026 119.956 79.1376 133.998 80 150C82.0946 164.662 89.677 178.122 101.082 187.547C112.733 196.255 127.31 201.57 142 200C160.203 196.817 174.029 188.934 185.164 174.121C193.503 161.08 196.128 145.158 192.938 130.062C188.371 113.986 179.099 101.082 164.664 92.6328C139.661 79.3029 110.287 85.3858 92 107Z" fill="#FF5CAA"/>
<path d="M289.828 294.519C290.976 294.528 292.125 294.537 293.307 294.546C294.608 294.546 295.91 294.547 297.25 294.547C298.671 294.567 300.091 294.588 301.512 294.609C302.965 294.617 304.418 294.623 305.871 294.627C309.693 294.642 313.515 294.681 317.338 294.725C321.239 294.766 325.14 294.785 329.041 294.805C336.694 294.848 344.347 294.916 352 295C354.719 300.1 354.33 304.805 354.312 310.5C354.329 311.545 354.345 312.591 354.361 313.668C354.362 314.675 354.363 315.681 354.363 316.719C354.366 317.636 354.369 318.553 354.372 319.498C353.912 322.589 353.199 323.783 351 326C348.23 326.515 348.23 326.515 344.832 326.533C343.561 326.549 342.289 326.565 340.979 326.581C339.59 326.578 338.201 326.573 336.812 326.566C335.389 326.572 333.966 326.578 332.542 326.585C329.56 326.596 326.577 326.591 323.595 326.576C319.771 326.559 315.948 326.583 312.125 326.618C309.185 326.64 306.247 326.638 303.307 326.63C301.898 326.629 300.488 326.636 299.078 326.651C297.108 326.668 295.138 326.651 293.168 326.631C291.486 326.63 291.486 326.63 289.77 326.628C287 326 287 326 285.139 323.618C283.917 320.809 283.613 318.89 283.602 315.84C283.598 314.881 283.594 313.923 283.59 312.936C283.601 311.946 283.613 310.957 283.625 309.938C283.613 308.944 283.602 307.951 283.59 306.928C283.594 305.971 283.598 305.013 283.602 304.027C283.605 303.158 283.608 302.29 283.612 301.394C284.278 297.285 285.622 295.234 289.828 294.519Z" fill="#FF5CAA"/>
<path d="M377.054 243.725C378.962 243.711 378.962 243.711 380.907 243.696C382.302 243.697 383.696 243.698 385.09 243.699C386.515 243.695 387.94 243.691 389.364 243.686C392.353 243.679 395.341 243.679 398.33 243.684C402.161 243.69 405.992 243.673 409.824 243.65C412.767 243.635 415.71 243.634 418.654 243.637C420.066 243.637 421.479 243.632 422.891 243.622C424.866 243.609 426.841 243.618 428.816 243.628C429.94 243.627 431.065 243.626 432.223 243.626C435 244 435 244 436.862 245.362C438.544 247.784 438.389 249.732 438.398 252.656C438.402 253.761 438.406 254.866 438.41 256.004C438.399 257.158 438.387 258.311 438.375 259.5C438.387 260.654 438.398 261.807 438.41 262.996C438.406 264.101 438.402 265.206 438.398 266.344C438.395 267.356 438.392 268.369 438.388 269.412C438 272 438 272 436.862 273.638C434.169 275.608 432.131 275.374 428.816 275.372C427.542 275.379 426.267 275.385 424.954 275.391C423.562 275.383 422.169 275.373 420.777 275.363C419.352 275.363 417.926 275.363 416.5 275.365C413.513 275.365 410.527 275.354 407.54 275.336C403.707 275.313 399.875 275.313 396.043 275.32C393.099 275.323 390.156 275.316 387.213 275.307C385.799 275.303 384.386 275.302 382.972 275.303C381 275.304 379.027 275.289 377.054 275.275C375.931 275.27 374.808 275.265 373.65 275.261C371 275 371 275 369 273C368.741 270.326 368.741 270.326 368.734 266.969C368.732 265.766 368.729 264.563 368.727 263.324C368.734 262.062 368.742 260.8 368.75 259.5C368.742 258.238 368.735 256.976 368.727 255.676C368.729 254.473 368.732 253.27 368.734 252.031C368.737 250.923 368.739 249.815 368.741 248.674C369.264 243.27 372.42 243.744 377.054 243.725Z" fill="#FF5CAA"/>
<path d="M376.14 172.839C378.113 172.824 378.113 172.824 380.125 172.81C381.572 172.805 383.018 172.801 384.465 172.797C385.938 172.791 387.412 172.785 388.885 172.78C391.978 172.769 395.071 172.763 398.164 172.76C402.133 172.754 406.102 172.73 410.072 172.702C413.116 172.683 416.161 172.678 419.205 172.676C420.669 172.673 422.133 172.665 423.596 172.652C425.641 172.635 427.686 172.639 429.73 172.644C430.895 172.64 432.06 172.636 433.261 172.633C434.165 172.754 435.069 172.875 436 173C439.107 177.661 438.369 182.456 438.375 187.938C438.4 189.035 438.424 190.133 438.449 191.264C438.453 192.32 438.457 193.376 438.461 194.465C438.469 195.43 438.477 196.396 438.486 197.39C437.846 200.826 436.719 201.84 434 204C431.186 204.494 431.186 204.494 427.902 204.486C426.671 204.492 425.44 204.498 424.171 204.504C422.831 204.491 421.492 204.476 420.152 204.461C418.775 204.459 417.398 204.458 416.021 204.458C413.138 204.455 410.256 204.438 407.374 204.412C403.679 204.378 399.985 204.37 396.291 204.372C393.448 204.371 390.606 204.36 387.764 204.346C386.402 204.339 385.04 204.335 383.677 204.334C381.774 204.329 379.871 204.31 377.969 204.291C376.886 204.283 375.803 204.275 374.688 204.267C372 204 372 204 369 202C368.644 199.219 368.644 199.219 368.672 195.715C368.677 194.463 368.682 193.21 368.688 191.92C368.708 190.606 368.729 189.292 368.75 187.938C368.755 186.619 368.76 185.301 368.766 183.943C368.857 172.882 368.857 172.882 376.14 172.839Z" fill="#FF5CAA"/>
</svg>
