<svg width="512" height="512" viewBox="0 0 512 512" fill="none" xmlns="http://www.w3.org/2000/svg">
<path d="M49.6244 101.759C50.8891 101.757 50.8891 101.757 52.1793 101.754C54.9907 101.751 57.8018 101.762 60.6131 101.773C62.6338 101.774 64.6545 101.773 66.6752 101.772C72.152 101.771 77.6286 101.783 83.1053 101.797C88.8321 101.81 94.559 101.811 100.286 101.813C111.126 101.819 121.967 101.836 132.808 101.856C145.151 101.878 157.494 101.889 169.838 101.899C195.225 101.92 220.613 101.955 246 102C245.735 103.123 245.469 104.246 245.195 105.402C243.419 112.925 241.648 120.447 240 128C238.997 128.004 237.994 128.008 236.96 128.013C212.583 128.116 188.206 128.225 163.829 128.339C152.041 128.395 140.252 128.448 128.464 128.497C118.192 128.54 107.921 128.586 97.6497 128.637C92.208 128.663 86.7664 128.688 81.3247 128.709C76.208 128.729 71.0913 128.753 65.9746 128.78C64.0919 128.79 62.2093 128.798 60.3267 128.803C57.7656 128.812 55.2046 128.826 52.6435 128.842C51.8906 128.843 51.1377 128.844 50.362 128.845C46.5546 128.811 46.5546 128.811 43.0001 130C42.6701 192.37 42.3401 254.74 42.0001 319C154.2 319 266.4 319 382 319C382 288.97 382 258.94 382 228C391 223 391 223 395 224C400.945 227.449 406.722 231.663 408.742 238.519C409.905 245.927 409.593 253.411 409.41 260.883C409.396 263.308 409.387 265.733 409.383 268.158C409.362 273.224 409.298 278.288 409.201 283.353C409.076 289.827 409.025 296.299 409.002 302.774C408.977 308.977 408.913 315.18 408.848 321.383C408.839 322.556 408.83 323.729 408.82 324.938C408.788 328.279 408.728 331.617 408.66 334.958C408.654 335.931 408.648 336.905 408.642 337.908C408.392 347.403 405.552 355.266 399 362.242C393.248 367.298 386.995 370.129 379.343 370.12C378.412 370.122 377.481 370.123 376.522 370.124C375.507 370.121 374.493 370.117 373.448 370.114C371.838 370.114 371.838 370.114 370.195 370.114C366.646 370.113 363.096 370.105 359.547 370.098C357.086 370.096 354.626 370.094 352.165 370.093C345.688 370.09 339.211 370.08 332.734 370.069C326.125 370.058 319.515 370.054 312.906 370.049C299.938 370.038 286.969 370.021 274 370C274 385.51 274 401.02 274 417C277.554 416.954 281.108 416.907 284.77 416.859C288.242 416.828 291.713 416.804 295.185 416.78C297.584 416.76 299.982 416.733 302.381 416.698C305.844 416.649 309.306 416.627 312.77 416.609C313.828 416.589 314.887 416.568 315.978 416.547C324.445 416.544 331.69 418.341 338.938 422.812C349.428 433.939 345 441.596 345 459C257.22 459 169.44 459 79.0001 459C79.0001 430.467 79.0001 430.467 84.6055 424.207C92.5231 417.228 100.794 416.559 111.035 416.707C112.154 416.711 113.274 416.716 114.427 416.72C117.972 416.737 121.517 416.774 125.063 416.812C127.479 416.828 129.895 416.841 132.311 416.854C138.208 416.884 144.103 416.943 150 417C150 401.49 150 385.98 150 370C146.72 370.021 143.44 370.042 140.061 370.063C129.205 370.13 118.348 370.174 107.492 370.207C100.911 370.228 94.3315 370.256 87.7515 370.302C81.3973 370.345 75.0432 370.369 68.6889 370.38C66.2688 370.387 63.8488 370.401 61.4289 370.423C58.03 370.452 54.632 370.456 51.233 370.454C50.2403 370.468 49.2477 370.483 48.225 370.498C38.6319 370.442 30.7988 367.613 23.7579 361C17.3297 353.686 15.8508 346.72 15.8529 337.234C15.8492 336.339 15.8455 335.445 15.8418 334.523C15.8307 331.518 15.8269 328.514 15.8231 325.509C15.8168 323.357 15.8102 321.206 15.8032 319.054C15.7821 311.981 15.7717 304.909 15.7618 297.836C15.7577 295.401 15.7536 292.965 15.7494 290.53C15.7304 279.088 15.7162 267.645 15.7078 256.203C15.6981 242.999 15.6717 229.794 15.6313 216.59C15.6012 206.382 15.5864 196.174 15.583 185.965C15.5807 179.87 15.5717 173.774 15.5466 167.678C15.5233 161.941 15.5191 156.204 15.5293 150.466C15.5298 148.364 15.5235 146.263 15.5098 144.161C15.3612 120.079 15.3612 120.079 24.3008 110.531C31.8278 103.748 39.7221 101.685 49.6244 101.759Z" fill="#FF5CAA"/>
<path d="M392.421 70.7065C408.963 84.2567 421.229 103.528 424 125C425.563 145.241 423.366 161.779 413.707 179.672C411.762 183.205 411.762 183.205 411 187C412.652 189.381 412.652 189.381 415.102 191.66C415.985 192.536 416.868 193.412 417.777 194.314C418.717 195.221 419.657 196.128 420.625 197.062C421.541 197.973 422.458 198.884 423.402 199.822C427.411 203.759 431.061 207.26 436 210C436.99 209.34 437.98 208.68 439 208C446.069 207.861 449.179 211.429 454 216C458.782 220.661 463.462 225.425 468.155 230.175C473.747 235.83 479.32 241.445 485.377 246.609C487.49 248.42 489.474 250.341 491.437 252.312C492.096 252.969 492.755 253.625 493.434 254.301C495.838 256.909 496.656 259.305 496.59 262.891C495.192 267.891 490.565 271.435 487 275C486.063 276.014 485.129 277.031 484.199 278.051C483.259 279.056 482.317 280.06 481.375 281.062C480.516 281.982 479.658 282.901 478.773 283.848C475.336 286.515 473.342 287.072 469 287C464.332 284.312 460.73 280.988 457.008 277.168C456.458 276.613 455.908 276.058 455.342 275.487C453.598 273.725 451.861 271.957 450.125 270.187C447.839 267.865 445.551 265.546 443.258 263.23C442.708 262.675 442.158 262.12 441.592 261.548C438.085 258.028 434.481 254.68 430.694 251.461C428.022 249.157 425.554 246.686 423.062 244.187C422.582 243.711 422.102 243.235 421.607 242.744C417.043 238.167 417.043 238.167 416.875 233.625C416.973 230.777 417.254 228.689 418 226C417.261 225.334 416.523 224.667 415.762 223.98C408.632 217.515 401.746 210.866 395 204C391.871 205.769 388.752 207.535 385.695 209.426C373.351 217.057 360.625 222.208 346 223C344.59 223.079 344.59 223.079 343.152 223.16C319.104 223.846 297.636 215.05 279.844 199.062C265.321 185.21 255.467 164.903 254.762 144.762C254.259 117.583 261.171 96.4393 280.125 76.375C310.378 47.1638 359.241 44.7125 392.421 70.7065ZM296 100C288.41 109.643 282.919 120.592 282 133C281.937 133.687 281.874 134.374 281.809 135.082C281.01 150.611 287.438 165.711 297.359 177.324C307.832 187.937 321.909 194.965 336.925 195.242C352.828 195.3 368.212 190.671 379.91 179.344C391.078 166.819 397.485 152.519 397.273 135.477C395.988 119.13 389.107 105.158 377 94C352.088 74.8198 317.571 76.1674 296 100Z" fill="#FF5CAA"/>
<path d="M209.654 159.814C210.708 159.815 210.708 159.815 211.783 159.815C213.925 159.813 216.067 159.794 218.209 159.775C219.565 159.772 220.921 159.77 222.277 159.77C223.517 159.765 224.757 159.761 226.035 159.757C229 160 229 160 231 162C231.252 164.161 231.252 164.161 231.254 166.897C231.26 167.931 231.265 168.966 231.271 170.032C231.267 171.172 231.263 172.312 231.259 173.486C231.262 174.683 231.266 175.88 231.269 177.113C231.277 180.4 231.275 183.687 231.269 186.974C231.264 190.41 231.268 193.846 231.271 197.281C231.275 203.052 231.27 208.822 231.261 214.592C231.25 221.269 231.253 227.946 231.264 234.622C231.273 240.349 231.275 246.076 231.269 251.802C231.266 255.225 231.266 258.648 231.272 262.071C231.279 265.885 231.27 269.699 231.259 273.514C231.263 274.653 231.267 275.793 231.271 276.968C231.263 278.52 231.263 278.52 231.254 280.103C231.253 281.006 231.252 281.909 231.252 282.839C231 285 231 285 229 287C226.142 287.243 226.142 287.243 222.531 287.23C221.238 287.229 219.945 287.227 218.613 287.225C217.939 287.218 217.264 287.212 216.569 287.206C214.508 287.188 212.448 287.185 210.387 287.186C200.28 287.14 200.28 287.14 198 286C197.977 269.719 197.959 253.439 197.948 237.158C197.943 229.599 197.936 222.04 197.924 214.481C197.915 207.895 197.908 201.309 197.906 194.723C197.905 191.234 197.901 187.745 197.894 184.255C197.886 180.366 197.886 176.477 197.886 172.588C197.883 171.423 197.879 170.258 197.875 169.057C197.877 168.004 197.878 166.951 197.88 165.866C197.878 164.484 197.878 164.484 197.877 163.075C198.192 157.755 205.555 159.829 209.654 159.814Z" fill="#FF5CAA"/>
<path d="M147.469 192.734C148.762 192.732 150.055 192.729 151.387 192.727C152.061 192.731 152.736 192.735 153.431 192.739C155.492 192.75 157.552 192.739 159.613 192.727C160.906 192.729 162.199 192.732 163.531 192.734C164.723 192.737 165.915 192.739 167.143 192.741C170 193 170 193 172 195C172.199 197.851 172.273 200.605 172.259 203.457C172.262 204.332 172.266 205.207 172.269 206.108C172.278 209.01 172.272 211.911 172.266 214.812C172.267 216.823 172.269 218.833 172.271 220.843C172.274 225.06 172.27 229.276 172.261 233.493C172.249 238.907 172.256 244.321 172.268 249.736C172.275 253.888 172.273 258.04 172.268 262.192C172.266 264.189 172.268 266.185 172.273 268.182C172.278 270.969 172.27 273.756 172.259 276.543C172.263 277.374 172.267 278.205 172.271 279.062C172.229 284.771 172.229 284.771 170 287C167.143 287.259 167.143 287.259 163.531 287.266C162.238 287.268 160.945 287.271 159.613 287.273C158.939 287.269 158.264 287.265 157.569 287.261C155.508 287.25 153.448 287.261 151.387 287.273C150.094 287.271 148.801 287.268 147.469 287.266C146.277 287.263 145.085 287.261 143.857 287.259C141 287 141 287 139 285C138.801 282.149 138.727 279.395 138.741 276.543C138.738 275.668 138.734 274.793 138.731 273.892C138.722 270.99 138.728 268.089 138.734 265.188C138.733 263.177 138.731 261.167 138.729 259.157C138.726 254.94 138.73 250.724 138.739 246.507C138.751 241.093 138.744 235.679 138.732 230.264C138.725 226.112 138.727 221.96 138.732 217.808C138.734 215.811 138.732 213.815 138.727 211.818C138.722 209.031 138.73 206.244 138.741 203.457C138.737 202.626 138.733 201.795 138.729 200.938C138.784 193.548 140.32 192.748 147.469 192.734Z" fill="#FF5CAA"/>
<path d="M88.625 224.867C89.2871 224.866 89.9492 224.865 90.6314 224.864C92.0336 224.864 93.4357 224.865 94.8379 224.87C96.991 224.875 99.1438 224.87 101.297 224.863C102.656 224.864 104.016 224.865 105.375 224.867C107.243 224.869 107.243 224.869 109.148 224.871C112 225 112 225 113 226C113.099 227.866 113.128 229.736 113.129 231.605C113.133 232.803 113.136 234.001 113.139 235.236C113.137 236.54 113.135 237.844 113.133 239.188C113.134 240.529 113.134 241.87 113.136 243.212C113.137 246.026 113.135 248.841 113.13 251.655C113.125 255.27 113.128 258.885 113.134 262.501C113.138 265.271 113.136 268.042 113.134 270.813C113.133 272.797 113.136 274.781 113.139 276.764C113.134 278.561 113.134 278.561 113.129 280.395C113.129 281.455 113.128 282.516 113.127 283.609C113 286 113 286 112 287C109.794 287.1 107.584 287.131 105.375 287.133C104.713 287.134 104.051 287.135 103.369 287.136C101.967 287.136 100.564 287.135 99.1621 287.13C97.0091 287.125 94.8562 287.13 92.7032 287.137C91.3438 287.136 89.9844 287.135 88.625 287.133C87.3798 287.132 86.1346 287.131 84.8516 287.129C82 287 82 287 81 286C80.9009 284.134 80.872 282.264 80.8706 280.395C80.8675 279.197 80.8643 277.999 80.8611 276.764C80.8631 275.46 80.8651 274.156 80.8672 272.813C80.8665 271.471 80.8656 270.13 80.8643 268.788C80.8628 265.974 80.865 263.159 80.8697 260.345C80.8754 256.73 80.8721 253.115 80.8661 249.499C80.8625 246.729 80.8636 243.958 80.8662 241.187C80.8672 239.203 80.8642 237.219 80.8611 235.236C80.8642 234.038 80.8674 232.84 80.8706 231.605C80.8714 230.545 80.8722 229.484 80.873 228.391C81.1307 223.539 84.4819 224.871 88.625 224.867Z" fill="#FF5CAA"/>
<path d="M368 113C371.028 114.514 372.541 115.667 373.66 118.918C374.176 123.025 373.573 125.252 371.035 128.562C368.452 131.173 365.784 133.605 363 136C362.344 136.583 361.688 137.165 361.012 137.766C359.77 138.861 358.52 139.947 357.262 141.023C354.286 143.624 351.397 146.313 348.5 149C347.373 150.038 346.245 151.076 345.117 152.113C343.266 153.819 341.442 155.541 339.633 157.293C336.492 160.257 334.508 161.845 330.312 163.125C323.216 162.857 318.532 157.059 313.688 152.375C312.947 151.701 312.206 151.027 311.443 150.332C307.795 146.788 305.518 144.374 305.391 139.137C305.595 135.852 305.907 135.116 308.062 132.438C311.749 130.634 313.925 130.552 318 131C320.871 133.188 320.871 133.188 323.438 136C324.735 137.392 324.735 137.392 326.059 138.812C326.699 139.534 327.34 140.256 328 141C331.924 139.384 334.714 136.686 337.75 133.812C338.825 132.812 339.9 131.812 340.977 130.812C341.756 130.085 341.756 130.085 342.552 129.344C345.635 126.483 348.798 123.726 352 121C352.825 120.273 353.65 119.546 354.5 118.797C355.799 117.691 355.799 117.691 357.125 116.562C357.911 115.883 358.698 115.204 359.508 114.504C362.593 112.642 364.452 112.614 368 113Z" fill="#FF5CAA"/>
</svg>
